<svg width="183" height="182" viewBox="0 0 183 182" fill="none" xmlns="http://www.w3.org/2000/svg">
<path d="M30.2621 124.149C24.3261 113.838 20.9111 101.9 20.9111 89.172C20.9111 50.383 52.4691 18.825 91.2591 18.825C130.048 18.825 161.606 50.383 161.606 89.172C161.606 101.9 158.191 113.838 152.255 124.149C153.314 124.308 154.374 124.47 155.434 124.638C161.27 114.119 164.607 102.03 164.607 89.172C164.607 48.729 131.704 15.825 91.2601 15.825C50.8161 15.825 17.9121 48.728 17.9121 89.172C17.9121 102.03 21.2481 114.119 27.0851 124.638C28.1441 124.47 29.2031 124.308 30.2621 124.149Z" fill="#1E84B5"/>
<path d="M91.2595 22.806C54.6655 22.806 24.8945 52.578 24.8945 89.171C24.8945 101.74 28.4075 113.503 34.5015 123.532C35.2285 123.43 35.9555 123.331 36.6825 123.233C30.4895 113.346 26.8945 101.673 26.8945 89.171C26.8945 53.68 55.7685 24.806 91.2595 24.806C126.75 24.806 155.624 53.68 155.624 89.171C155.624 101.673 152.029 113.345 145.836 123.232C146.563 123.33 147.29 123.43 148.017 123.531C154.111 113.502 157.624 101.739 157.624 89.17C157.624 52.578 127.853 22.806 91.2595 22.806Z" fill="#1E84B5"/>
<path d="M15.3995 164.719C15.9445 167.156 17.8175 168.964 20.0955 169.539C67.7765 161.2 114.74 161.2 162.421 169.539C164.699 168.965 166.572 167.157 167.117 164.72C169.356 154.702 171.596 144.685 173.835 134.667C174.628 131.121 172.318 127.63 168.749 126.952C116.781 117.073 65.7385 117.073 13.7695 126.952C10.1995 127.63 7.89047 131.121 8.68347 134.667C10.9205 144.683 13.1605 154.701 15.3995 164.719Z" fill="#1E84B5"/>
<path d="M164.605 133.341C115.618 124.516 67.4107 124.485 18.4297 133.248" stroke="white" stroke-miterlimit="10"/>
<path d="M159.706 161.13C114.071 153.447 69.0704 153.412 23.4414 161.024" stroke="white" stroke-miterlimit="10"/>
<path d="M45.4792 169.128C38.0722 170.063 30.6772 171.211 23.3622 172.578C22.7932 172.685 22.2122 172.738 21.6352 172.738C17.2792 172.738 13.4242 169.64 12.4712 165.373L6.55324 138.897C6.43324 138.92 6.31324 138.939 6.19424 138.962C2.62224 139.641 0.31024 143.13 1.10324 146.678C3.34224 156.696 5.58124 166.713 7.82124 176.731C8.57424 180.099 11.8562 182.273 15.2482 181.639C23.7422 180.051 32.2032 178.772 40.6442 177.781C44.1742 177.366 46.5672 173.99 45.7912 170.521C45.6862 170.056 45.5832 169.592 45.4792 169.128Z" fill="#1E84B5"/>
<path d="M137.613 169.128C145.02 170.063 152.415 171.211 159.73 172.578C160.299 172.685 160.88 172.738 161.457 172.738C165.814 172.738 169.668 169.64 170.621 165.373L176.539 138.897C176.659 138.92 176.779 138.939 176.898 138.962C180.47 139.641 182.782 143.13 181.989 146.678C179.75 156.696 177.511 166.713 175.271 176.731C174.518 180.099 171.236 182.273 167.844 181.639C159.35 180.051 150.889 178.772 142.448 177.781C138.918 177.366 136.525 173.99 137.3 170.521C137.406 170.056 137.509 169.592 137.613 169.128Z" fill="#1E84B5"/>
<path d="M106.661 48.34C104.554 48.459 102.982 48.907 102.982 49.444C102.982 49.981 104.554 50.428 106.661 50.547C106.78 52.654 107.227 54.226 107.765 54.226C108.302 54.226 108.749 52.653 108.868 50.546C110.975 50.427 112.547 49.979 112.547 49.442C112.547 48.905 110.975 48.457 108.868 48.339C108.749 46.232 108.302 44.659 107.765 44.66C107.227 44.66 106.78 46.232 106.661 48.34Z" fill="#1E84B5"/>
<path d="M92.3557 50.549C94.4627 50.43 96.0347 49.982 96.0347 49.445C96.0347 48.908 94.4627 48.46 92.3557 48.342C92.2367 46.235 91.7897 44.663 91.2527 44.663C90.7157 44.663 90.2687 46.235 90.1497 48.343C88.0427 48.462 86.4707 48.91 86.4707 49.447C86.4707 49.984 88.0427 50.431 90.1497 50.55C90.2687 52.657 90.7157 54.229 91.2527 54.229C91.7887 54.229 92.2367 52.657 92.3557 50.549Z" fill="#1E84B5"/>
<path d="M75.842 50.552C77.949 50.433 79.521 49.985 79.521 49.448C79.521 48.911 77.949 48.463 75.842 48.345C75.723 46.238 75.276 44.665 74.739 44.666C74.202 44.666 73.754 46.239 73.636 48.346C71.529 48.465 69.957 48.913 69.957 49.45C69.957 49.987 71.529 50.434 73.636 50.553C73.755 52.66 74.202 54.232 74.74 54.232C75.278 54.232 75.723 52.659 75.842 50.552Z" fill="#1E84B5"/>
<path d="M138.209 60.436H44.2969V79.139H138.209V60.436Z" fill="#1E84B5"/>
<path d="M91.6645 39.022C105.343 39.022 116.432 30.3484 116.432 19.649C116.432 8.94957 105.343 0.276001 91.6645 0.276001C77.9855 0.276001 66.8965 8.94957 66.8965 19.649C66.8965 30.3484 77.9855 39.022 91.6645 39.022Z" fill="#1E84B5"/>
<path d="M46.9366 89.592L49.8525 94.925L55.1866 97.842L49.8525 100.76L46.9366 106.093L44.0185 100.76L38.6855 97.842L44.0185 94.925L46.9366 89.592Z" fill="#1E84B5"/>
<path d="M134.973 89.592L137.891 94.925L143.224 97.842L137.891 100.76L134.973 106.093L132.056 100.76L126.723 97.842L132.056 94.925L134.973 89.592Z" fill="#1E84B5"/>
<path d="M20.8464 153.234C20.7844 152.908 20.7534 152.745 20.6914 152.42C21.3214 152.138 21.6374 151.998 22.2684 151.719C21.5244 147.72 21.1524 145.721 20.4084 141.723C19.7004 141.693 19.3464 141.679 18.6374 141.652C18.5754 141.326 18.5444 141.163 18.4824 140.838C20.6054 140.433 21.6684 140.238 23.7954 139.863C26.8084 139.332 28.4844 140.102 28.8144 142.119C28.9214 142.771 28.8154 143.372 28.4984 143.925C28.1814 144.478 27.7014 144.917 27.0554 145.245C27.0574 145.259 27.0594 145.266 27.0614 145.281C28.0894 145.289 28.9204 145.524 29.5504 145.981C30.1794 146.438 30.5584 147.078 30.6914 147.896C30.8634 148.964 30.5964 149.88 29.8984 150.646C29.2004 151.412 28.1724 151.911 26.8104 152.147C24.4204 152.562 23.2284 152.78 20.8464 153.234ZM23.4334 145.513C23.8494 145.438 24.0584 145.401 24.4744 145.327C25.1794 145.202 25.7264 144.903 26.1164 144.427C26.5054 143.952 26.6414 143.365 26.5224 142.666C26.4014 141.955 26.0814 141.467 25.5614 141.203C25.0404 140.939 24.3844 140.875 23.5974 141.015C23.2204 141.082 23.0324 141.115 22.6554 141.183C22.9654 142.915 23.1214 143.781 23.4334 145.513ZM24.4984 151.439C25.1234 151.327 25.4364 151.271 26.0624 151.161C26.9364 151.008 27.5774 150.685 27.9884 150.188C28.3984 149.692 28.5384 149.052 28.4074 148.27C28.2864 147.548 27.9384 147.008 27.3604 146.655C26.7824 146.302 26.0364 146.204 25.1264 146.364C24.5294 146.469 24.2304 146.522 23.6334 146.629C23.9794 148.554 24.1524 149.516 24.4984 151.439Z" fill="white"/>
<path d="M31.8494 151.307C31.7974 150.979 31.7714 150.816 31.7184 150.488C32.3554 150.226 32.6744 150.095 33.3144 149.835C32.6904 145.816 32.3794 143.806 31.7564 139.787C31.0504 139.736 30.6974 139.711 29.9904 139.663C29.9384 139.335 29.9124 139.172 29.8594 138.844C33.7284 138.226 35.6664 137.942 39.5464 137.424C39.7424 138.889 39.8404 139.622 40.0364 141.088C39.6894 141.134 39.5164 141.158 39.1694 141.205C38.7174 140.255 38.4904 139.78 38.0334 138.831C36.4224 138.995 35.6174 139.081 34.0074 139.263C34.2814 141.103 34.4184 142.023 34.6924 143.864C36.2544 143.493 37.0364 143.311 38.6034 142.957C38.6914 143.593 38.7354 143.911 38.8234 144.546C37.2274 144.636 36.4284 144.685 34.8314 144.791C35.1224 146.745 35.2684 147.722 35.5594 149.677C37.2454 149.368 38.0894 149.218 39.7794 148.928C40.0004 147.806 40.1124 147.244 40.3384 146.122C40.6804 146.076 40.8514 146.053 41.1934 146.008C41.3394 147.56 41.4124 148.336 41.5604 149.888C37.6694 150.404 35.7274 150.688 31.8494 151.307Z" fill="white"/>
<path d="M41.534 140.072C41.406 139.083 41.714 138.261 42.464 137.608C43.213 136.957 44.243 136.551 45.549 136.397C46.943 136.233 48.234 136.229 49.42 136.38C49.531 137.76 49.586 138.451 49.697 139.831C49.364 139.867 49.198 139.885 48.865 139.921C48.382 138.929 48.139 138.434 47.651 137.444C47.119 137.407 46.587 137.419 46.053 137.481C45.196 137.581 44.543 137.824 44.094 138.205C43.644 138.587 43.455 139.065 43.526 139.637C43.587 140.126 43.857 140.508 44.333 140.782C44.81 141.057 45.615 141.349 46.746 141.666C47.348 141.826 47.847 141.984 48.243 142.139C48.639 142.294 49.069 142.51 49.532 142.785C49.994 143.061 50.357 143.416 50.619 143.847C50.881 144.278 51.04 144.776 51.1 145.337C51.226 146.533 50.874 147.502 50.054 148.241C49.29 148.93 48.275 149.332 47.032 149.473C46.697 149.511 46.136 149.549 45.354 149.584C44.573 149.619 43.715 149.563 42.78 149.416C42.598 148.007 42.507 147.303 42.325 145.893C42.66 145.85 42.827 145.828 43.162 145.786C43.67 146.812 43.922 147.325 44.425 148.353C44.951 148.446 45.55 148.45 46.224 148.37C47.164 148.258 47.903 148.007 48.446 147.613C48.988 147.218 49.221 146.67 49.143 145.966C49.083 145.428 48.77 144.991 48.203 144.656C47.636 144.321 46.82 143.994 45.757 143.687C44.299 143.267 43.259 142.825 42.65 142.344C42.041 141.867 41.668 141.11 41.534 140.072Z" fill="white"/>
<path d="M51.0308 139.908C50.8728 138.387 50.7938 137.627 50.6348 136.106C55.0768 135.644 57.3008 135.445 61.7518 135.113C61.8658 136.638 61.9228 137.4 62.0368 138.925C61.6888 138.951 61.5148 138.964 61.1668 138.991C60.7528 137.967 60.5448 137.455 60.1258 136.432C59.0478 136.459 58.5078 136.475 57.4288 136.51C57.7848 140.634 57.9628 142.697 58.3188 146.821C58.9998 146.921 59.3398 146.972 60.0198 147.076C60.0468 147.407 60.0608 147.572 60.0878 147.902C57.8678 148.084 56.7578 148.183 54.5398 148.398C54.5078 148.068 54.4918 147.903 54.4598 147.573C55.1108 147.351 55.4368 147.24 56.0898 147.021C55.7088 142.899 55.5188 140.838 55.1378 136.716C54.0628 136.873 53.5248 136.954 52.4508 137.119C52.2278 138.199 52.1168 138.739 51.8988 139.82C51.5528 139.854 51.3788 139.872 51.0308 139.908Z" fill="white"/>
<path d="M66.4009 147.44C66.3799 147.109 66.3689 146.944 66.3479 146.613C67.0049 146.412 67.3339 146.312 67.9929 146.113C67.7489 142.053 67.6269 140.023 67.3829 135.963C66.6869 135.846 66.3389 135.788 65.6409 135.673C65.6199 135.342 65.6089 135.177 65.5879 134.846C69.4879 134.594 71.4379 134.493 75.3399 134.34C75.3979 135.817 75.4269 136.556 75.4839 138.033C75.1349 138.047 74.9609 138.054 74.6119 138.068C74.2519 137.08 74.0699 136.586 73.7059 135.598C72.0909 135.61 71.2829 135.621 69.6669 135.65C69.7669 137.508 69.8179 138.437 69.9179 140.295C71.5039 140.072 72.2969 139.965 73.8869 139.758C73.9149 140.399 73.9289 140.72 73.9569 141.361C72.3629 141.3 71.5649 141.274 69.9689 141.231C70.0759 143.204 70.1289 144.19 70.2359 146.163C71.9389 146.013 72.7909 145.944 74.4969 145.813C74.8209 144.716 74.9849 144.168 75.3149 143.072C75.6589 143.058 75.8309 143.051 76.1749 143.038C76.1749 144.597 76.1749 145.376 76.1769 146.935C72.2639 147.087 70.3099 147.187 66.4009 147.44Z" fill="white"/>
<path d="M76.8445 146.913C76.8325 146.582 76.8265 146.416 76.8145 146.085C77.4985 145.894 77.8405 145.799 78.5255 145.612C78.6285 141.533 78.6835 139.492 78.7995 135.413C78.1385 135.284 77.8064 135.22 77.1444 135.093C77.1404 134.766 77.1385 134.602 77.1345 134.275C78.7375 134.22 79.5395 134.197 81.1425 134.158C82.9185 137.881 83.7855 139.748 85.4785 143.491C87.0895 139.705 87.9155 137.817 89.6095 134.049C91.1535 134.046 91.9254 134.049 93.4684 134.061C93.4654 134.388 93.4645 134.551 93.4615 134.878C92.7875 135.022 92.4505 135.094 91.7775 135.241C92.0155 139.324 92.1314 141.365 92.3564 145.448C93.0534 145.61 93.4015 145.693 94.0975 145.858C94.0945 146.19 94.0924 146.355 94.0894 146.687C91.8864 146.664 90.7845 146.661 88.5815 146.672C88.5795 146.34 88.5795 146.175 88.5775 145.843C89.2155 145.689 89.5355 145.612 90.1745 145.46C89.9775 142.035 89.8765 140.322 89.6705 136.897C87.9145 140.845 87.0584 142.824 85.3934 146.79C85.0744 146.794 84.9144 146.797 84.5954 146.801C82.7964 142.877 81.8734 140.92 79.9814 137.018C79.8884 140.454 79.8434 142.173 79.7594 145.609C80.4104 145.742 80.7365 145.809 81.3855 145.945C81.3935 146.277 81.3975 146.442 81.4055 146.774C79.5825 146.819 78.6705 146.846 76.8445 146.913Z" fill="white"/>
<path d="M94.4922 146.692C94.4962 146.36 94.4982 146.195 94.5012 145.863C95.1712 145.712 95.5072 145.637 96.1782 145.489C96.2422 141.422 96.2752 139.389 96.3392 135.322C95.6542 135.152 95.3112 135.068 94.6252 134.901C94.6292 134.569 94.6312 134.404 94.6342 134.072C96.6272 134.095 97.6242 134.112 99.6172 134.161C103.288 134.25 105.073 135.65 104.971 138.28C104.919 139.613 104.408 140.588 103.448 141.21C102.488 141.831 101.247 142.12 99.7182 142.082C99.2902 142.071 98.8812 142.031 98.4912 141.962C98.4602 143.39 98.4442 144.104 98.4132 145.531C99.2972 145.709 99.7382 145.799 100.62 145.982C100.611 146.313 100.606 146.479 100.597 146.811C98.1552 146.743 96.9342 146.72 94.4922 146.692ZM98.5152 140.845C98.6992 140.873 98.8832 140.895 99.0662 140.911C99.2502 140.927 99.4272 140.938 99.6002 140.942C100.017 140.952 100.408 140.902 100.773 140.792C101.138 140.682 101.457 140.511 101.728 140.279C102 140.047 102.215 139.76 102.374 139.416C102.533 139.072 102.62 138.666 102.635 138.197C102.665 137.26 102.401 136.548 101.837 136.062C101.274 135.576 100.523 135.32 99.5892 135.297C99.2082 135.288 99.0172 135.283 98.6362 135.275C98.5882 137.503 98.5642 138.617 98.5152 140.845Z" fill="white"/>
<path d="M104.924 146.957C104.937 146.626 104.944 146.46 104.957 146.129C105.631 145.997 105.969 145.932 106.645 145.803C106.824 141.74 106.913 139.708 107.092 135.645C106.412 135.456 106.072 135.362 105.39 135.176C105.403 134.845 105.41 134.679 105.423 134.348C107.722 134.439 108.872 134.493 111.17 134.618C111.152 134.949 111.143 135.115 111.125 135.446C110.429 135.567 110.081 135.629 109.386 135.753C109.182 139.83 109.08 141.868 108.876 145.945C110.583 146.03 111.437 146.078 113.143 146.183C113.602 145.127 113.832 144.6 114.297 143.545C114.633 143.567 114.802 143.578 115.138 143.6C114.961 145.149 114.874 145.924 114.699 147.474C110.789 147.214 108.835 147.111 104.924 146.957Z" fill="white"/>
<path d="M122.47 135.129C123.48 135.214 124.358 135.455 125.1 135.849C125.842 136.242 126.452 136.753 126.93 137.378C127.408 138.004 127.743 138.732 127.933 139.559C128.125 140.388 128.171 141.281 128.075 142.237C127.977 143.206 127.756 144.078 127.416 144.852C127.074 145.628 126.618 146.28 126.048 146.811C125.478 147.342 124.802 147.733 124.02 147.987C123.236 148.242 122.353 148.326 121.366 148.243C120.318 148.155 119.426 147.909 118.687 147.503C117.947 147.097 117.351 146.58 116.896 145.95C116.442 145.321 116.124 144.597 115.941 143.778C115.759 142.958 115.697 142.087 115.76 141.163C115.821 140.264 116 139.43 116.301 138.661C116.602 137.893 117.027 137.23 117.579 136.672C118.13 136.115 118.815 135.695 119.632 135.414C120.452 135.136 121.397 135.038 122.47 135.129ZM122.381 136.188C121.113 136.081 120.11 136.519 119.381 137.494C118.652 138.469 118.232 139.767 118.112 141.385C117.985 143.099 118.224 144.469 118.823 145.497C119.421 146.525 120.297 147.086 121.456 147.183C122.616 147.281 123.572 146.874 124.334 145.961C125.096 145.047 125.561 143.737 125.722 142.026C125.875 140.41 125.677 139.06 125.121 137.977C124.565 136.895 123.649 136.295 122.381 136.188Z" fill="white"/>
<path d="M127.896 136.729C127.929 136.399 127.945 136.234 127.977 135.904C130.128 136.116 131.203 136.23 133.352 136.473C133.315 136.803 133.296 136.967 133.259 137.297C132.765 137.335 132.517 137.355 132.023 137.395C133.06 139.272 133.571 140.212 134.578 142.095C135.865 140.534 136.515 139.755 137.826 138.205C137.294 137.993 137.028 137.887 136.495 137.677C136.535 137.348 136.555 137.183 136.595 136.854C138.422 137.076 139.334 137.193 141.159 137.437C141.115 137.766 141.093 137.93 141.049 138.259C140.344 138.325 139.992 138.359 139.288 138.428C137.562 140.451 136.709 141.468 135.023 143.511C134.805 145.337 134.695 146.25 134.477 148.076C135.124 148.313 135.446 148.432 136.091 148.672C136.05 149.001 136.03 149.166 135.989 149.495C133.776 149.22 132.669 149.091 130.454 148.85C130.49 148.52 130.508 148.355 130.544 148.026C131.226 147.941 131.568 147.899 132.252 147.817C132.457 146.011 132.559 145.108 132.764 143.302C131.429 140.872 130.75 139.66 129.366 137.242C128.78 137.035 128.486 136.932 127.896 136.729Z" fill="white"/>
<path d="M139.324 149.923C139.368 149.594 139.39 149.43 139.434 149.101C140.119 149.032 140.462 148.999 141.148 148.934C141.704 144.905 141.982 142.89 142.538 138.862C141.877 138.61 141.546 138.485 140.883 138.236C140.927 137.907 140.949 137.743 140.993 137.414C144.873 137.932 146.811 138.215 150.68 138.832C150.447 140.292 150.331 141.022 150.098 142.482C149.752 142.427 149.579 142.399 149.233 142.345C149.072 141.305 148.991 140.785 148.826 139.745C147.235 139.44 146.438 139.292 144.844 139.003C144.578 140.844 144.446 141.765 144.18 143.607C145.783 143.699 146.584 143.75 148.188 143.86C148.09 144.494 148.041 144.811 147.942 145.446C146.386 145.074 145.607 144.892 144.046 144.536C143.764 146.492 143.623 147.469 143.341 149.425C145.045 149.613 145.896 149.711 147.599 149.919C148.133 148.907 148.401 148.402 148.941 147.392C149.282 147.446 149.453 147.473 149.794 147.528C149.488 149.057 149.336 149.821 149.032 151.35C145.155 150.727 143.213 150.442 139.324 149.923Z" fill="white"/>
<path d="M149.949 151.498C150.002 151.171 150.029 151.007 150.082 150.68C150.77 150.631 151.114 150.608 151.802 150.563C152.474 146.552 152.811 144.546 153.483 140.535C152.829 140.264 152.501 140.129 151.845 139.861C151.898 139.534 151.925 139.37 151.978 139.043C155.846 139.673 157.777 140.014 161.631 140.744C161.356 142.197 161.218 142.923 160.943 144.376C160.599 144.311 160.426 144.278 160.082 144.214C159.951 143.17 159.885 142.648 159.749 141.603C158.165 141.252 157.373 141.08 155.786 140.745C155.467 142.578 155.308 143.495 154.989 145.328C156.59 145.467 157.391 145.541 158.992 145.698C158.875 146.329 158.817 146.645 158.7 147.276C157.154 146.858 156.379 146.654 154.828 146.252C154.49 148.199 154.32 149.172 153.982 151.119C155.682 151.356 156.531 151.48 158.229 151.737C158.793 150.741 159.076 150.244 159.644 149.25C159.984 149.314 160.154 149.346 160.494 149.411C160.144 150.93 159.97 151.69 159.621 153.209C155.76 152.472 153.825 152.13 149.949 151.498Z" fill="white"/>
<path d="M72.5185 82.7809C73.3022 82.7809 73.9941 82.9115 74.594 83.1727C75.1939 83.434 75.7019 83.7969 76.118 84.2613C76.534 84.7258 76.8485 85.2821 77.0614 85.9304C77.2742 86.5787 77.3807 87.2899 77.3807 88.064C77.3807 88.8478 77.2742 89.5638 77.0614 90.2121C76.8582 90.8604 76.5485 91.4216 76.1325 91.8957C75.7261 92.3602 75.2181 92.723 74.6085 92.9843C74.0086 93.2455 73.3119 93.3762 72.5185 93.3762C71.6766 93.3762 70.9461 93.2359 70.3268 92.9552C69.7172 92.6746 69.2141 92.2973 68.8174 91.8231C68.4206 91.3393 68.1255 90.7733 67.932 90.125C67.7482 89.4767 67.6562 88.78 67.6562 88.035C67.6562 87.3093 67.753 86.6319 67.9465 86.003C68.14 85.3644 68.4352 84.808 68.8319 84.3339C69.2286 83.8501 69.7318 83.4727 70.3413 83.2018C70.9606 82.9212 71.6863 82.7809 72.5185 82.7809ZM72.5185 83.6372C71.5315 83.6372 70.7816 84.0533 70.2688 84.8854C69.7656 85.7079 69.514 86.7722 69.514 88.0785C69.514 89.4622 69.7801 90.5507 70.3123 91.3442C70.8542 92.1279 71.5896 92.5198 72.5185 92.5198C73.4474 92.5198 74.1779 92.1279 74.7101 91.3442C75.2519 90.5507 75.5229 89.4622 75.5229 88.0785C75.5229 86.7722 75.2665 85.7079 74.7536 84.8854C74.2505 84.0533 73.5054 83.6372 72.5185 83.6372ZM78.5678 93.1584V92.4908L79.9031 92.1715V83.9855L78.5678 83.6662V82.9986H86.0571V85.974H85.3894L84.7798 83.971L81.6883 83.8549V87.5705L84.8234 87.3093V88.601L81.6883 88.3543V92.1715L83.3139 92.4908V93.1584H78.5678ZM90.2849 86.0756V82.9986H98.9207V86.0756H98.2386L97.5854 83.971L95.4954 83.8549V92.1715L96.8307 92.4908V93.1584H92.3749V92.4908L93.7102 92.1715V83.8549L91.6056 83.971L90.967 86.0756H90.2849ZM99.9988 93.1584V92.4908L101.334 92.1715V83.9855L99.9988 83.6662V82.9986H104.455V83.6662L103.119 83.9855V87.5415H107.604V83.9855L106.269 83.6662V82.9986H110.725V83.6662L109.389 83.9855V92.1715L110.725 92.4908V93.1584H106.269V92.4908L107.604 92.1715V88.5139H103.119V92.1715L104.455 92.4908V93.1584H99.9988ZM112.004 93.1584V92.4908L113.339 92.1715V83.9855L112.004 83.6662V82.9986H119.566V85.974H118.884L118.26 83.971L115.125 83.8549V87.585L118.26 87.3093V88.601L115.125 88.3398V92.3021L118.535 92.186L119.276 90.0234H119.958L119.842 93.1584H112.004Z" fill="#1E84B5"/>
<path d="M64.3026 107.706V107.039L65.6815 106.705L66.1459 98.519L64.8687 98.2142L64.8832 97.5466H67.9892L71.2549 105.123L74.5496 97.5466H77.5395V98.2142L76.2332 98.519L76.7267 106.719L78.12 107.039V107.706H73.7077V107.039L74.985 106.734L74.5931 99.8543L71.1533 107.779H70.5146L67.0313 99.8398L66.6684 106.734L67.9602 107.039V107.706H64.3026ZM83.9129 97.3288C84.6966 97.3288 85.3885 97.4595 85.9884 97.7207C86.5883 97.982 87.0963 98.3448 87.5124 98.8093C87.9284 99.2737 88.2429 99.8301 88.4558 100.478C88.6686 101.127 88.7751 101.838 88.7751 102.612C88.7751 103.396 88.6686 104.112 88.4558 104.76C88.2526 105.408 87.9429 105.97 87.5269 106.444C87.1205 106.908 86.6125 107.271 86.0029 107.532C85.403 107.794 84.7063 107.924 83.9129 107.924C83.071 107.924 82.3405 107.784 81.7212 107.503C81.1116 107.223 80.6085 106.845 80.2118 106.371C79.815 105.887 79.5199 105.321 79.3264 104.673C79.1426 104.025 79.0506 103.328 79.0506 102.583C79.0506 101.857 79.1474 101.18 79.3409 100.551C79.5344 99.9123 79.8296 99.356 80.2263 98.8818C80.623 98.398 81.1262 98.0207 81.7357 97.7497C82.355 97.4691 83.0807 97.3288 83.9129 97.3288ZM83.9129 98.1852C82.9259 98.1852 82.176 98.6012 81.6632 99.4334C81.16 100.256 80.9084 101.32 80.9084 102.626C80.9084 104.01 81.1745 105.099 81.7067 105.892C82.2486 106.676 82.984 107.068 83.9129 107.068C84.8418 107.068 85.5723 106.676 86.1045 105.892C86.6464 105.099 86.9173 104.01 86.9173 102.626C86.9173 101.32 86.6609 100.256 86.148 99.4334C85.6449 98.6012 84.8998 98.1852 83.9129 98.1852ZM89.9622 107.706V107.039L91.2975 106.719V98.5335L89.9622 98.2142V97.5466H92.3135L98.3658 104.731V98.5335L97.0305 98.2142V97.5466H100.761V98.2142L99.4254 98.5335V107.706H98.5545L92.3135 100.348V106.719L93.6488 107.039V107.706H89.9622ZM101.693 100.624V97.5466H110.329V100.624H109.647L108.994 98.519L106.904 98.4029V106.719L108.239 107.039V107.706H103.783V107.039L105.119 106.719V98.4029L103.014 98.519L102.376 100.624H101.693ZM111.407 107.706V107.039L112.743 106.719V98.5335L111.407 98.2142V97.5466H115.863V98.2142L114.528 98.5335V102.089H119.013V98.5335L117.677 98.2142V97.5466H122.133V98.2142L120.798 98.5335V106.719L122.133 107.039V107.706H117.677V107.039L119.013 106.719V103.062H114.528V106.719L115.863 107.039V107.706H111.407Z" fill="#1E84B5"/>
<path d="M54.0435 74.6326V73.9623L55.384 73.6417V65.4236L54.0435 65.103V64.4327H61.6351V67.4198H60.9502L60.3237 65.409L57.1763 65.2924V69.0372L60.3237 68.7604V70.0572L57.1763 69.7949V73.7729L60.6005 73.6563L61.3436 71.4852H62.0285L61.9119 74.6326H54.0435ZM63.1742 74.6326V73.9623L64.5584 73.6272L65.0247 65.409L63.7424 65.103L63.757 64.4327H66.8752L70.1538 72.0389L73.4614 64.4327H76.4631V65.103L75.1517 65.409L75.6471 73.6417L77.0459 73.9623V74.6326H72.6163V73.9623L73.8986 73.6563L73.5051 66.7495L70.0518 74.7054H69.4106L65.9135 66.735L65.5493 73.6563L66.8461 73.9623V74.6326H63.1742ZM81.2245 69.8532C81.3702 69.8726 81.5159 69.8872 81.6616 69.8969C81.8073 69.9066 81.9482 69.9115 82.0842 69.9115C82.4144 69.9115 82.7204 69.8629 83.0021 69.7658C83.2936 69.6686 83.5413 69.5229 83.7453 69.3287C83.959 69.1344 84.1241 68.8964 84.2407 68.6147C84.3573 68.333 84.4155 68.0027 84.4155 67.6238C84.4155 66.8661 84.1873 66.2978 83.7307 65.919C83.2839 65.5401 82.6961 65.3507 81.9676 65.3507H81.2245V69.8532ZM78.0916 74.6326V73.9623L79.4322 73.6417V65.4236L78.0916 65.103V64.4327H81.9676C84.8235 64.4327 86.2515 65.4964 86.2515 67.6238C86.2515 68.7021 85.8775 69.5084 85.1295 70.0426C84.3913 70.5672 83.415 70.8295 82.2007 70.8295C81.8607 70.8295 81.5353 70.8052 81.2245 70.7566V73.6417L83.0021 73.9623V74.6326H78.0916ZM87.2129 74.6326V73.9623L88.5534 73.6417V65.4236L87.2129 65.103V64.4327H91.6862V65.103L90.3457 65.4236V73.6563H93.7699L94.5568 71.4852H95.227L95.0813 74.6326H87.2129ZM101.204 64.2142C101.99 64.2142 102.685 64.3453 103.287 64.6076C103.89 64.8699 104.4 65.2341 104.817 65.7004C105.235 66.1667 105.551 66.7253 105.764 67.3761C105.978 68.027 106.085 68.7409 106.085 69.5181C106.085 70.3049 105.978 71.0238 105.764 71.6746C105.56 72.3255 105.25 72.8889 104.832 73.3649C104.424 73.8312 103.914 74.1954 103.302 74.4577C102.7 74.72 102 74.8511 101.204 74.8511C100.358 74.8511 99.6251 74.7103 99.0034 74.4286C98.3914 74.1469 97.8862 73.768 97.488 73.292C97.0897 72.8063 96.7934 72.238 96.5991 71.5872C96.4146 70.9363 96.3223 70.2369 96.3223 69.4889C96.3223 68.7604 96.4194 68.0804 96.6137 67.449C96.808 66.8078 97.1043 66.2493 97.5025 65.7733C97.9008 65.2876 98.406 64.9087 99.0179 64.6367C99.6396 64.355 100.368 64.2142 101.204 64.2142ZM101.204 65.0739C100.213 65.0739 99.4599 65.4916 98.9451 66.327C98.44 67.1527 98.1874 68.2212 98.1874 69.5326C98.1874 70.9218 98.4545 72.0146 98.9888 72.8112C99.5328 73.598 100.271 73.9914 101.204 73.9914C102.136 73.9914 102.87 73.598 103.404 72.8112C103.948 72.0146 104.22 70.9218 104.22 69.5326C104.22 68.2212 103.962 67.1527 103.448 66.327C102.942 65.4916 102.194 65.0739 101.204 65.0739ZM106.248 65.103V64.4327H110.445V65.103L109.498 65.2924L111.902 68.8332L114.058 65.3944L112.98 65.103V64.4327H116.55V65.103L115.21 65.4236L112.383 69.9261V73.6417L113.723 73.9623V74.6326H109.25V73.9623L110.591 73.6417V69.9698L107.429 65.3944L106.248 65.103ZM117.152 74.6326V73.9623L118.493 73.6417V65.4236L117.152 65.103V64.4327H124.744V67.4198H124.059L123.432 65.409L120.285 65.2924V69.0372L123.432 68.7604V70.0572L120.285 69.7949V73.7729L123.709 73.6563L124.452 71.4852H125.137L125.021 74.6326H117.152ZM126.487 74.6326V73.9623L127.827 73.6417V65.4236L126.487 65.103V64.4327H134.078V67.4198H133.394L132.767 65.409L129.62 65.2924V69.0372L132.767 68.7604V70.0572L129.62 69.7949V73.7729L133.044 73.6563L133.787 71.4852H134.472L134.355 74.6326H126.487Z" fill="white"/>
<path d="M80.8196 22.736V21.0957H83.2032L84.1258 16.2004H81.486V14.5601H84.459L85.3817 9.56234H87.0732L86.1249 14.5601H89.5593L90.5076 9.56234H92.1992L91.2252 14.5601H93.6088V16.2004H90.9433L89.995 21.0957H92.9168V22.736H89.6875L88.7392 27.8876H87.0732L88.0215 22.736H84.5872L83.6132 27.8876H81.9473L82.9212 22.736H80.8196ZM84.8691 21.0957H88.3291L89.2774 16.2004H85.7918L84.8691 21.0957ZM95.3989 12.7917L100.807 9.94678H102.011V26.2985L104.19 26.7855V27.8876H95.9371V26.7855L98.8845 26.2729V12.5354L95.809 13.8425L95.3989 12.7917Z" fill="white"/>
</svg>
