<svg width="183" height="178" viewBox="0 0 183 178" fill="none" xmlns="http://www.w3.org/2000/svg">
<path d="M125.134 166.485L94.9866 175.839C92.5676 176.59 89.9766 176.576 87.5656 175.801L59.1666 166.668C43.6796 161.687 33.1426 146.995 33.1426 130.38V48.414C33.1426 31.727 43.7696 16.989 59.3486 12.068L88.6196 2.82298C91.0346 2.05998 93.6256 2.05998 96.0396 2.82298L125.311 12.068C140.89 16.989 151.517 31.727 151.517 48.414V130.084C151.516 146.841 140.802 161.623 125.134 166.485Z" stroke="#1E84B5" stroke-width="3" stroke-miterlimit="10" stroke-linecap="round" stroke-linejoin="round"/>
<path d="M91.3531 169.979C90.6161 169.979 89.8871 169.865 89.1861 169.639L61.2321 160.65C48.0051 156.396 39.1191 143.972 39.1191 129.735V49.058C39.1191 34.745 48.0681 22.302 61.3871 18.095L90.1971 8.99496C90.8881 8.77696 91.6051 8.66595 92.3291 8.66595C93.0541 8.66595 93.7721 8.77596 94.4631 8.99496L123.272 18.095C136.591 22.302 145.54 34.745 145.54 49.058V129.444C145.54 143.832 136.531 156.294 123.122 160.454L93.4501 169.661C92.7701 169.872 92.0641 169.979 91.3531 169.979Z" stroke="#1E84B5" stroke-width="2" stroke-miterlimit="10" stroke-linecap="round" stroke-linejoin="round"/>
<path d="M4.61322 115.287L0.824219 134.436H26.1762V96.138H0.824219L4.61322 115.287Z" fill="#1E84B5"/>
<path d="M182.867 96.138H157.514V134.436H182.867L179.078 115.287L182.867 96.138Z" fill="#1E84B5"/>
<path d="M167.982 83.248H13.0352V125.702H167.982V83.248Z" fill="#1E84B5"/>
<path d="M56.2206 64.555C56.1326 63.006 55.8036 61.85 55.4086 61.85C55.0136 61.85 54.6846 63.006 54.5976 64.555C53.0486 64.642 51.8926 64.971 51.8926 65.366C51.8926 65.761 53.0486 66.09 54.5976 66.177C54.6846 67.726 55.0136 68.882 55.4086 68.882C55.8036 68.882 56.1326 67.726 56.2206 66.177C57.7696 66.09 58.9256 65.761 58.9256 65.366C58.9256 64.971 57.7696 64.642 56.2206 64.555Z" fill="#1E84B5"/>
<path d="M54.5976 54.0339C54.6846 55.5829 55.0136 56.7389 55.4086 56.7389C55.8036 56.7389 56.1326 55.5829 56.2206 54.0339C57.7696 53.9469 58.9256 53.6179 58.9256 53.2229C58.9256 52.8279 57.7696 52.4989 56.2206 52.4109C56.1336 50.8619 55.8046 49.7059 55.4086 49.7059C55.0136 49.7059 54.6846 50.8619 54.5976 52.4109C53.0486 52.4979 51.8926 52.8279 51.8926 53.2229C51.8926 53.6169 53.0486 53.9459 54.5976 54.0339Z" fill="#1E84B5"/>
<path d="M54.5976 41.89C54.6846 43.439 55.0136 44.595 55.4086 44.595C55.8036 44.595 56.1326 43.439 56.2206 41.89C57.7696 41.803 58.9256 41.474 58.9256 41.079C58.9256 40.684 57.7696 40.355 56.2206 40.267C56.1336 38.718 55.8046 37.562 55.4086 37.562C55.0136 37.562 54.6846 38.718 54.5976 40.267C53.0486 40.354 51.8926 40.684 51.8926 41.079C51.8926 41.474 53.0486 41.802 54.5976 41.89Z" fill="#1E84B5"/>
<path d="M128.695 64.555C128.607 63.006 128.279 61.85 127.883 61.85C127.488 61.85 127.159 63.006 127.072 64.555C125.523 64.642 124.367 64.971 124.367 65.366C124.367 65.761 125.523 66.09 127.072 66.177C127.159 67.726 127.488 68.882 127.883 68.882C128.278 68.882 128.607 67.726 128.694 66.177C130.243 66.09 131.399 65.761 131.399 65.366C131.4 64.971 130.244 64.642 128.695 64.555Z" fill="#1E84B5"/>
<path d="M127.072 54.0339C127.159 55.5829 127.488 56.7389 127.883 56.7389C128.278 56.7389 128.607 55.5829 128.695 54.0339C130.244 53.9469 131.4 53.6179 131.4 53.2229C131.4 52.8279 130.244 52.4989 128.695 52.4109C128.608 50.8619 128.278 49.7059 127.883 49.7059C127.488 49.7059 127.159 50.8619 127.072 52.4109C125.523 52.4979 124.367 52.8279 124.367 53.2229C124.367 53.6169 125.523 53.9459 127.072 54.0339Z" fill="#1E84B5"/>
<path d="M127.071 41.89C127.158 43.439 127.487 44.595 127.882 44.595C128.277 44.595 128.606 43.439 128.693 41.89C130.242 41.803 131.398 41.474 131.398 41.079C131.398 40.684 130.242 40.355 128.693 40.267C128.605 38.718 128.277 37.562 127.881 37.562C127.486 37.562 127.157 38.718 127.07 40.267C125.521 40.354 124.365 40.684 124.365 41.079C124.366 41.474 125.522 41.802 127.071 41.89Z" fill="#1E84B5"/>
<path d="M58.6769 141.633V141.18L59.5817 140.964V135.417L58.6769 135.201V134.749H63.8007V136.765H63.3385L62.9156 135.407L60.7913 135.329V137.856L62.9156 137.669V138.545L60.7913 138.368V141.053L63.1025 140.974L63.6041 139.509H64.0663L63.9876 141.633H58.6769ZM64.8395 141.633V141.18L65.7738 140.954L66.0885 135.407L65.2231 135.201L65.2329 134.749H67.3375L69.5504 139.882L71.7828 134.749H73.8088V135.201L72.9237 135.407L73.258 140.964L74.2022 141.18V141.633H71.2124V141.18L72.0779 140.974L71.8123 136.312L69.4815 141.682H69.0488L66.6885 136.302L66.4426 140.974L67.3179 141.18V141.633H64.8395ZM77.0224 138.407C77.1208 138.42 77.2191 138.43 77.3175 138.437C77.4158 138.443 77.5109 138.446 77.6027 138.446C77.8256 138.446 78.0321 138.414 78.2223 138.348C78.419 138.282 78.5861 138.184 78.7238 138.053C78.8681 137.922 78.9795 137.761 79.0582 137.571C79.1369 137.381 79.1762 137.158 79.1762 136.902C79.1762 136.391 79.0221 136.007 78.714 135.752C78.4124 135.496 78.0157 135.368 77.524 135.368H77.0224V138.407ZM74.908 141.633V141.18L75.8128 140.964V135.417L74.908 135.201V134.749H77.524C79.4516 134.749 80.4154 135.466 80.4154 136.902C80.4154 137.63 80.163 138.174 79.6581 138.535C79.1598 138.889 78.5009 139.066 77.6813 139.066C77.4519 139.066 77.2322 139.05 77.0224 139.017V140.964L78.2223 141.18V141.633H74.908ZM81.0643 141.633V141.18L81.969 140.964V135.417L81.0643 135.201V134.749H84.0835V135.201L83.1787 135.417V140.974H85.4899L86.0209 139.509H86.4733L86.375 141.633H81.0643ZM90.5072 134.601C91.0383 134.601 91.507 134.69 91.9135 134.867C92.32 135.044 92.6643 135.289 92.9462 135.604C93.2281 135.919 93.4412 136.296 93.5854 136.735C93.7297 137.174 93.8018 137.656 93.8018 138.181C93.8018 138.712 93.7297 139.197 93.5854 139.636C93.4478 140.076 93.2379 140.456 92.956 140.777C92.6806 141.092 92.3364 141.338 91.9234 141.515C91.5169 141.692 91.0448 141.78 90.5072 141.78C89.9368 141.78 89.4418 141.685 89.0221 141.495C88.6091 141.305 88.2681 141.049 87.9993 140.728C87.7305 140.4 87.5305 140.017 87.3994 139.577C87.2748 139.138 87.2126 138.666 87.2126 138.161C87.2126 137.669 87.2781 137.21 87.4092 136.784C87.5404 136.352 87.7404 135.975 88.0092 135.653C88.278 135.325 88.6189 135.07 89.032 134.886C89.4516 134.696 89.9433 134.601 90.5072 134.601ZM90.5072 135.181C89.8384 135.181 89.3303 135.463 88.9828 136.027C88.6419 136.584 88.4714 137.306 88.4714 138.191C88.4714 139.128 88.6517 139.866 89.0123 140.403C89.3795 140.935 89.8778 141.2 90.5072 141.2C91.1366 141.2 91.6316 140.935 91.9922 140.403C92.3594 139.866 92.543 139.128 92.543 138.191C92.543 137.306 92.3692 136.584 92.0217 136.027C91.6808 135.463 91.1759 135.181 90.5072 135.181ZM93.9121 135.201V134.749H96.7445V135.201L96.1052 135.329L97.7279 137.719L99.1835 135.398L98.4557 135.201V134.749H100.865V135.201L99.9604 135.417L98.0525 138.456V140.964L98.9573 141.18V141.633H95.938V141.18L96.8428 140.964V138.486L94.7087 135.398L93.9121 135.201ZM101.271 141.633V141.18L102.176 140.964V135.417L101.271 135.201V134.749H106.395V136.765H105.933L105.51 135.407L103.386 135.329V137.856L105.51 137.669V138.545L103.386 138.368V141.053L105.697 140.974L106.199 139.509H106.661L106.582 141.633H101.271ZM107.572 141.633V141.18L108.477 140.964V135.417L107.572 135.201V134.749H112.696V136.765H112.233L111.811 135.407L109.686 135.329V137.856L111.811 137.669V138.545L109.686 138.368V141.053L111.997 140.974L112.499 139.509H112.961L112.883 141.633H107.572ZM119.512 134.601C120.043 134.601 120.512 134.69 120.918 134.867C121.325 135.044 121.669 135.289 121.951 135.604C122.233 135.919 122.446 136.296 122.59 136.735C122.734 137.174 122.806 137.656 122.806 138.181C122.806 138.712 122.734 139.197 122.59 139.636C122.452 140.076 122.243 140.456 121.961 140.777C121.685 141.092 121.341 141.338 120.928 141.515C120.522 141.692 120.049 141.78 119.512 141.78C118.941 141.78 118.446 141.685 118.027 141.495C117.614 141.305 117.273 141.049 117.004 140.728C116.735 140.4 116.535 140.017 116.404 139.577C116.28 139.138 116.217 138.666 116.217 138.161C116.217 137.669 116.283 137.21 116.414 136.784C116.545 136.352 116.745 135.975 117.014 135.653C117.283 135.325 117.624 135.07 118.037 134.886C118.456 134.696 118.948 134.601 119.512 134.601ZM119.512 135.181C118.843 135.181 118.335 135.463 117.987 136.027C117.647 136.584 117.476 137.306 117.476 138.191C117.476 139.128 117.656 139.866 118.017 140.403C118.384 140.935 118.882 141.2 119.512 141.2C120.141 141.2 120.636 140.935 120.997 140.403C121.364 139.866 121.548 139.128 121.548 138.191C121.548 137.306 121.374 136.584 121.026 136.027C120.685 135.463 120.181 135.181 119.512 135.181ZM123.611 141.633V141.18L124.516 140.964V135.417L123.611 135.201V134.749H128.686V136.765H128.233L127.82 135.407L125.725 135.329V137.846L127.85 137.669V138.545L125.725 138.378V140.964L126.827 141.18V141.633H123.611Z" fill="#1E84B5"/>
<path d="M62.8907 146.692V144.607H68.7424V146.692H68.2802L67.8376 145.265L66.4214 145.187V150.822L67.3262 151.038V151.491H64.3069V151.038L65.2117 150.822V145.187L63.7857 145.265L63.353 146.692H62.8907ZM69.4728 151.491V151.038L70.3776 150.822V145.275L69.4728 145.059V144.607H72.4921V145.059L71.5873 145.275V147.685H74.6262V145.275L73.7214 145.059V144.607H76.7407V145.059L75.8359 145.275V150.822L76.7407 151.038V151.491H73.7214V151.038L74.6262 150.822V148.344H71.5873V150.822L72.4921 151.038V151.491H69.4728ZM77.6076 151.491V151.038L78.5124 150.822V145.275L77.6076 145.059V144.607H82.7315V146.623H82.2693L81.8464 145.265L79.7221 145.187V147.714L81.8464 147.527V148.403L79.7221 148.226V150.911L82.0332 150.832L82.5348 149.367H82.997L82.9183 151.491H77.6076ZM86.0465 151.491V151.038L86.9808 150.812L87.2955 145.265L86.43 145.059L86.4399 144.607H88.5445L90.7573 149.74L92.9898 144.607H95.0157V145.059L94.1306 145.265L94.465 150.822L95.4091 151.038V151.491H92.4194V151.038L93.2848 150.832L93.0193 146.17L90.6884 151.54H90.2557L87.8954 146.16L87.6495 150.832L88.5248 151.038V151.491H86.0465ZM99.3343 144.459C99.8654 144.459 100.334 144.548 100.741 144.725C101.147 144.902 101.491 145.147 101.773 145.462C102.055 145.777 102.268 146.154 102.413 146.593C102.557 147.032 102.629 147.514 102.629 148.039C102.629 148.57 102.557 149.055 102.413 149.494C102.275 149.934 102.065 150.314 101.783 150.635C101.508 150.95 101.164 151.196 100.75 151.373C100.344 151.55 99.8719 151.638 99.3343 151.638C98.7639 151.638 98.2689 151.543 97.8493 151.353C97.4362 151.163 97.0953 150.907 96.8265 150.586C96.5576 150.258 96.3577 149.875 96.2265 149.435C96.102 148.996 96.0397 148.524 96.0397 148.019C96.0397 147.527 96.1052 147.069 96.2364 146.642C96.3675 146.21 96.5675 145.833 96.8363 145.511C97.1051 145.184 97.446 144.928 97.8591 144.744C98.2787 144.554 98.7704 144.459 99.3343 144.459ZM99.3343 145.039C98.6655 145.039 98.1574 145.321 97.8099 145.885C97.469 146.442 97.2985 147.164 97.2985 148.049C97.2985 148.986 97.4788 149.724 97.8394 150.262C98.2066 150.793 98.7049 151.058 99.3343 151.058C99.9637 151.058 100.459 150.793 100.819 150.262C101.187 149.724 101.37 148.986 101.37 148.049C101.37 147.164 101.196 146.442 100.849 145.885C100.508 145.321 100.003 145.039 99.3343 145.039ZM103.433 151.491V151.038L104.338 150.822V145.275L103.433 145.059V144.607H105.027L109.128 149.475V145.275L108.223 145.059V144.607H110.75V145.059L109.846 145.275V151.491H109.255L105.027 146.505V150.822L105.931 151.038V151.491H103.433ZM111.382 146.692V144.607H117.234V146.692H116.772L116.329 145.265L114.913 145.187V150.822L115.818 151.038V151.491H112.799V151.038L113.703 150.822V145.187L112.277 145.265L111.845 146.692H111.382ZM117.964 151.491V151.038L118.869 150.822V145.275L117.964 145.059V144.607H120.984V145.059L120.079 145.275V147.685H123.118V145.275L122.213 145.059V144.607H125.232V145.059L124.327 145.275V150.822L125.232 151.038V151.491H122.213V151.038L123.118 150.822V148.344H120.079V150.822L120.984 151.038V151.491H117.964Z" fill="#1E84B5"/>
<path d="M14.5918 112.285V111.445L16.2702 111.044V100.755L14.5918 100.353V99.5142H19.8276C22.7952 99.5142 24.279 100.548 24.279 102.616C24.279 103.285 24.0783 103.868 23.677 104.367C23.2878 104.866 22.7527 105.224 22.0716 105.443V105.48C23.0689 105.662 23.8351 106.033 24.3702 106.593C24.9175 107.152 25.1912 107.851 25.1912 108.691C25.1912 109.785 24.7838 110.661 23.9689 111.318C23.154 111.962 22.0533 112.285 20.6668 112.285H14.5918ZM18.5141 111.172H20.1013C20.9891 111.172 21.6763 110.959 22.1628 110.533C22.6493 110.108 22.8925 109.493 22.8925 108.691C22.8925 107.949 22.6371 107.353 22.1263 106.903C21.6276 106.453 20.9222 106.228 20.0101 106.228H18.5141V111.172ZM18.5141 105.078H19.554C20.2594 105.078 20.8371 104.878 21.2871 104.476C21.7493 104.063 21.9803 103.497 21.9803 102.78C21.9803 102.05 21.7493 101.509 21.2871 101.156C20.8371 100.803 20.2229 100.627 19.4445 100.627H18.5141V105.078ZM26.7065 112.285V111.445L28.3849 111.044V100.755L26.7065 100.353V99.5142H36.2113V103.254H35.3539L34.5694 100.737L30.6289 100.591V105.279L34.5694 104.933V106.556L30.6289 106.228V111.208L34.9161 111.062L35.8465 108.344H36.7039L36.558 112.285H26.7065ZM38.7038 102.433C38.7038 101.424 39.1052 100.639 39.9079 100.08C40.7106 99.5203 41.7505 99.2406 43.0275 99.2406C44.3897 99.2406 45.6363 99.3804 46.7674 99.6602L46.6762 103.163H45.8553L44.9431 100.536C44.4323 100.439 43.9154 100.39 43.3924 100.39C42.5532 100.39 41.8904 100.554 41.4039 100.882C40.9295 101.211 40.6924 101.667 40.6924 102.251C40.6924 102.749 40.9052 103.169 41.3309 103.51C41.7687 103.838 42.5228 104.227 43.5931 104.677C44.1647 104.908 44.633 105.127 44.9978 105.334C45.3749 105.528 45.7762 105.79 46.2019 106.118C46.6276 106.447 46.9438 106.842 47.1505 107.304C47.3695 107.766 47.4789 108.283 47.4789 108.855C47.4789 110.071 47.0289 111.008 46.1289 111.664C45.2897 112.272 44.2377 112.57 42.9728 112.558C42.6323 112.558 42.0667 112.528 41.2762 112.467C40.4978 112.406 39.6525 112.242 38.7403 111.974V108.381H39.5795L40.5099 111.117C41.0208 111.275 41.6167 111.354 42.2978 111.354C43.2465 111.354 44.0127 111.19 44.5965 110.862C45.1803 110.521 45.4721 109.992 45.4721 109.274C45.4721 108.727 45.2107 108.253 44.6877 107.851C44.1647 107.45 43.3985 107.031 42.389 106.593C41.0025 105.997 40.0417 105.419 39.5066 104.86C38.9714 104.3 38.7038 103.491 38.7038 102.433ZM48.8812 103.382V99.5142H59.7361V103.382H58.8786L58.0577 100.737L55.4306 100.591V111.044L57.109 111.445V112.285H51.5083V111.445L53.1867 111.044V100.591L50.5414 100.737L49.7387 103.382H48.8812ZM65.3134 112.285V111.445L66.9918 111.044V100.755L65.3134 100.353V99.5142H74.8182V103.254H73.9608L73.1763 100.737L69.2357 100.591V105.279L73.1763 104.933V106.556L69.2357 106.228V111.208L73.5229 111.062L74.4534 108.344H75.3108L75.1649 112.285H65.3134ZM76.7452 112.285V111.445L78.4783 111.026L79.0621 100.737L77.4567 100.353L77.4749 99.5142H81.379L85.4838 109.037L89.625 99.5142H93.3832V100.353L91.7413 100.737L92.3615 111.044L94.1129 111.445V112.285H88.5669V111.445L90.1723 111.062L89.6798 102.415L85.3561 112.376H84.5534L80.1749 102.397L79.7189 111.062L81.3425 111.445V112.285H76.7452ZM99.3445 106.301C99.5269 106.325 99.7094 106.343 99.8918 106.356C100.074 106.368 100.251 106.374 100.421 106.374C100.834 106.374 101.217 106.313 101.57 106.191C101.935 106.07 102.245 105.887 102.501 105.644C102.768 105.401 102.975 105.103 103.121 104.75C103.267 104.397 103.34 103.984 103.34 103.51C103.34 102.561 103.054 101.849 102.482 101.375C101.923 100.901 101.187 100.664 100.275 100.664H99.3445V106.301ZM95.4222 112.285V111.445L97.1005 111.044V100.755L95.4222 100.353V99.5142H100.275C103.851 99.5142 105.638 100.846 105.638 103.51C105.638 104.86 105.17 105.869 104.234 106.538C103.309 107.195 102.087 107.523 100.567 107.523C100.141 107.523 99.7337 107.493 99.3445 107.432V111.044L101.57 111.445V112.285H95.4222ZM106.842 112.285V111.445L108.52 111.044V100.755L106.842 100.353V99.5142H112.443V100.353L110.764 100.755V111.062H115.052L116.037 108.344H116.876L116.694 112.285H106.842ZM124.359 99.2406C125.344 99.2406 126.213 99.4048 126.968 99.7331C127.722 100.062 128.36 100.518 128.883 101.101C129.406 101.685 129.801 102.385 130.069 103.199C130.337 104.014 130.47 104.908 130.47 105.881C130.47 106.866 130.337 107.766 130.069 108.581C129.814 109.396 129.424 110.101 128.901 110.697C128.391 111.281 127.752 111.737 126.986 112.066C126.232 112.394 125.356 112.558 124.359 112.558C123.301 112.558 122.382 112.382 121.604 112.029C120.838 111.676 120.205 111.202 119.707 110.606C119.208 109.998 118.837 109.287 118.594 108.472C118.363 107.657 118.247 106.781 118.247 105.845C118.247 104.933 118.369 104.081 118.612 103.291C118.855 102.488 119.226 101.789 119.725 101.193C120.224 100.585 120.856 100.11 121.622 99.7696C122.401 99.4169 123.313 99.2406 124.359 99.2406ZM124.359 100.317C123.118 100.317 122.176 100.84 121.531 101.886C120.899 102.92 120.582 104.258 120.582 105.899C120.582 107.639 120.917 109.007 121.586 110.004C122.267 110.989 123.191 111.482 124.359 111.482C125.526 111.482 126.445 110.989 127.114 110.004C127.795 109.007 128.135 107.639 128.135 105.899C128.135 104.258 127.813 102.92 127.168 101.886C126.536 100.84 125.599 100.317 124.359 100.317ZM130.675 100.353V99.5142H135.929V100.353L134.743 100.591L137.753 105.024L140.453 100.718L139.103 100.353V99.5142H143.573V100.353L141.895 100.755L138.355 106.392V111.044L140.034 111.445V112.285H134.433V111.445L136.111 111.044V106.447L132.153 100.718L130.675 100.353ZM144.327 112.285V111.445L146.005 111.044V100.755L144.327 100.353V99.5142H153.831V103.254H152.974L152.189 100.737L148.249 100.591V105.279L152.189 104.933V106.556L148.249 106.228V111.208L152.536 111.062L153.467 108.344H154.324L154.178 112.285H144.327ZM156.014 112.285V111.445L157.692 111.044V100.755L156.014 100.353V99.5142H165.519V103.254H164.661L163.877 100.737L159.936 100.591V105.279L163.877 104.933V106.556L159.936 106.228V111.208L164.223 111.062L165.154 108.344H166.011L165.865 112.285H156.014Z" fill="white"/>
<path d="M69.3461 58.6174V55.28H74.1958L76.0731 45.3198H70.7019V41.9823H76.751L78.6284 31.8135H82.0701L80.1406 41.9823H87.1284L89.0579 31.8135H92.4996L90.518 41.9823H95.3678V45.3198H89.9444L88.0149 55.28H93.9598V58.6174H87.3892L85.4597 69.0991H82.0701L83.9996 58.6174H77.0118L75.0302 69.0991H71.6406L73.6222 58.6174H69.3461ZM77.5854 55.28H84.6253L86.5548 45.3198H79.4627L77.5854 55.28ZM99.01 38.3841L110.013 32.5957H112.464V65.866L116.897 66.8568V69.0991H100.105V66.8568L106.102 65.8138V37.8626L99.8443 40.5222L99.01 38.3841Z" fill="#1E84B5"/>
</svg>
