<svg width="198" height="168" viewBox="0 0 198 168" fill="none" xmlns="http://www.w3.org/2000/svg">
<g clip-path="url(#clip0_595_88)">
<path d="M73.9609 38.4557V37.436L76.0003 36.9483V24.4455L73.9609 23.9578V22.938H80.3231C83.9291 22.938 85.7321 24.1942 85.7321 26.7066C85.7321 27.5194 85.4883 28.2288 85.0006 28.8348C84.5277 29.4407 83.8774 29.8767 83.0498 30.1427V30.187C84.2617 30.4087 85.1927 30.8594 85.843 31.5393C86.508 32.2191 86.8405 33.0689 86.8405 34.0886C86.8405 35.4187 86.3455 36.4828 85.3553 37.2808C84.3651 38.0641 83.0276 38.4557 81.3429 38.4557H73.9609ZM78.727 37.1035H80.6556C81.7345 37.1035 82.5695 36.8448 83.1606 36.3276C83.7518 35.8103 84.0474 35.064 84.0474 34.0886C84.0474 33.1871 83.737 32.4629 83.1163 31.9161C82.5104 31.3693 81.6532 31.0959 80.5448 31.0959H78.727V37.1035ZM78.727 29.6993H79.9906C80.8478 29.6993 81.5498 29.4555 82.0966 28.9678C82.6582 28.4653 82.939 27.7781 82.939 26.9061C82.939 26.0194 82.6582 25.3618 82.0966 24.9332C81.5498 24.5046 80.8034 24.2903 79.8576 24.2903H78.727V29.6993ZM88.6819 38.4557V37.436L90.7213 36.9483V24.4455L88.6819 23.9578V22.938H100.231V27.4825H99.1896L98.2363 24.4233L93.448 24.246V29.9432L98.2363 29.522V31.4949L93.448 31.0959V37.1478L98.6575 36.9704L99.7881 33.6674H100.83L100.652 38.4557H88.6819ZM103.26 26.4849C103.26 25.2583 103.748 24.3051 104.723 23.6253C105.698 22.9454 106.962 22.6055 108.514 22.6055C110.169 22.6055 111.684 22.7755 113.058 23.1154L112.947 27.3717H111.95L110.841 24.1795C110.221 24.0612 109.593 24.0021 108.957 24.0021C107.937 24.0021 107.132 24.2016 106.541 24.6006C105.964 24.9997 105.676 25.5539 105.676 26.2633C105.676 26.8692 105.935 27.3791 106.452 27.7929C106.984 28.1919 107.901 28.6648 109.201 29.2116C109.896 29.4924 110.465 29.7584 110.908 30.0097C111.366 30.2461 111.854 30.5639 112.371 30.9629C112.888 31.3619 113.273 31.8422 113.524 32.4038C113.79 32.9654 113.923 33.5935 113.923 34.2881C113.923 35.766 113.376 36.9039 112.282 37.702C111.263 38.4409 109.984 38.803 108.447 38.7882C108.034 38.7882 107.346 38.7513 106.386 38.6774C105.44 38.6035 104.413 38.404 103.304 38.0789V33.7117H104.324L105.455 37.037C106.075 37.2291 106.799 37.3251 107.627 37.3251C108.78 37.3251 109.711 37.1256 110.42 36.7266C111.13 36.3128 111.484 35.6699 111.484 34.798C111.484 34.1329 111.167 33.5566 110.531 33.0689C109.896 32.5812 108.965 32.0713 107.738 31.5393C106.053 30.8151 104.886 30.1131 104.235 29.4333C103.585 28.7535 103.26 27.7707 103.26 26.4849ZM115.627 27.6377V22.938H128.817V27.6377H127.775L126.777 24.4233L123.585 24.246V36.9483L125.625 37.436V38.4557H118.819V37.436L120.859 36.9483V24.246L117.644 24.4233L116.669 27.6377H115.627Z" fill="#1E84B5"/>
<path d="M41.9688 60.6744V59.6546L44.0083 59.167V46.6641L41.9688 46.1764V45.1567H53.5184V49.7012H52.4765L51.5233 46.642L46.735 46.4646V52.1618L51.5233 51.7406V53.7136L46.735 53.3146V59.3665L51.9445 59.1891L53.075 55.8861H54.1169L53.9396 60.6744H41.9688ZM55.8599 60.6744V59.6546L57.9659 59.1448L58.6753 46.642L56.7244 46.1764L56.7466 45.1567H61.4906L66.4783 56.7285L71.5106 45.1567H76.0771V46.1764L74.0821 46.642L74.8358 59.167L76.9639 59.6546V60.6744H70.2248V59.6546L72.1756 59.1891L71.577 48.6814L66.3232 60.7852H65.3479L60.0275 48.6593L59.4733 59.1891L61.4463 59.6546V60.6744H55.8599ZM83.321 53.4032C83.5427 53.4328 83.7644 53.455 83.986 53.4697C84.2077 53.4845 84.422 53.4919 84.6289 53.4919C85.1314 53.4919 85.5969 53.418 86.0255 53.2702C86.4689 53.1224 86.8457 52.9008 87.1561 52.6052C87.4812 52.3096 87.7325 51.9475 87.9098 51.519C88.0871 51.0904 88.1758 50.5879 88.1758 50.0115C88.1758 48.8588 87.8285 47.9942 87.1339 47.4179C86.4541 46.8415 85.56 46.5533 84.4516 46.5533H83.321V53.4032ZM78.5548 60.6744V59.6546L80.5943 59.167V46.6641L78.5548 46.1764V45.1567H84.4516C88.7965 45.1567 90.9689 46.775 90.9689 50.0115C90.9689 51.652 90.3999 52.8786 89.2619 53.6914C88.1388 54.4895 86.6536 54.8885 84.8063 54.8885C84.289 54.8885 83.7939 54.8516 83.321 54.7777V59.167L86.0255 59.6546V60.6744H78.5548ZM92.4315 60.6744V59.6546L94.4709 59.167V46.6641L92.4315 46.1764V45.1567H99.2372V46.1764L97.1977 46.6641V59.1891H102.407L103.604 55.8861H104.624L104.402 60.6744H92.4315ZM113.716 44.8242C114.913 44.8242 115.97 45.0237 116.886 45.4227C117.803 45.8218 118.579 46.376 119.214 47.0853C119.85 47.7947 120.33 48.6445 120.655 49.6347C120.98 50.6248 121.143 51.7111 121.143 52.8934C121.143 54.0905 120.98 55.1841 120.655 56.1743C120.345 57.1644 119.872 58.0216 119.236 58.7458C118.616 59.4551 117.84 60.0093 116.909 60.4084C115.992 60.8074 114.928 61.0069 113.716 61.0069C112.431 61.0069 111.315 60.7926 110.369 60.364C109.438 59.9354 108.669 59.3591 108.064 58.6349C107.458 57.896 107.007 57.0314 106.711 56.0412C106.43 55.0511 106.29 53.987 106.29 52.849C106.29 51.7406 106.438 50.7061 106.733 49.7455C107.029 48.7701 107.48 47.9203 108.086 47.1962C108.692 46.4572 109.46 45.8809 110.391 45.4671C111.337 45.0385 112.445 44.8242 113.716 44.8242ZM113.716 46.1321C112.209 46.1321 111.064 46.7676 110.28 48.0386C109.512 49.2948 109.128 50.9204 109.128 52.9155C109.128 55.0289 109.534 56.6915 110.347 57.9034C111.174 59.1004 112.298 59.699 113.716 59.699C115.135 59.699 116.251 59.1004 117.064 57.9034C117.891 56.6915 118.305 55.0289 118.305 52.9155C118.305 50.9204 117.914 49.2948 117.13 48.0386C116.362 46.7676 115.224 46.1321 113.716 46.1321ZM121.391 46.1764V45.1567H127.776V46.1764L126.335 46.4646L129.992 51.8515L133.273 46.6198L131.633 46.1764V45.1567H137.064V46.1764L135.025 46.6641L130.724 53.5141V59.167L132.763 59.6546V60.6744H125.958V59.6546L127.997 59.167V53.5806L123.187 46.6198L121.391 46.1764ZM137.98 60.6744V59.6546L140.019 59.167V46.6641L137.98 46.1764V45.1567H149.529V49.7012H148.488L147.534 46.642L142.746 46.4646V52.1618L147.534 51.7406V53.7136L142.746 53.3146V59.3665L147.956 59.1891L149.086 55.8861H150.128L149.951 60.6744H137.98ZM152.181 60.6744V59.6546L154.221 59.167V46.6641L152.181 46.1764V45.1567H163.731V49.7012H162.689L161.736 46.642L156.947 46.4646V52.1618L161.736 51.7406V53.7136L156.947 53.3146V59.3665L162.157 59.1891L163.288 55.8861H164.329L164.152 60.6744H152.181Z" fill="#1E84B5"/>
<path d="M81.1094 100.631V97.7925H85.2337L86.8303 89.3221H82.2624V86.4838H87.4068L89.0033 77.8359H91.9303L90.2894 86.4838H96.232L97.8729 77.8359H100.8L99.1147 86.4838H103.239V89.3221H98.6268L96.986 97.7925H102.042V100.631H96.4538L94.8129 109.545H91.9303L93.5712 100.631H87.6285L85.9433 109.545H83.0607L84.7459 100.631H81.1094ZM88.1164 97.7925H94.1033L95.7442 89.3221H89.7129L88.1164 97.7925ZM106.336 83.4238L115.694 78.5012H117.778V106.796L121.548 107.638V109.545H107.268V107.638L112.368 106.751V82.9803L107.046 85.2421L106.336 83.4238Z" fill="#1E84B5"/>
<path d="M27.1875 121.371L44.7034 151.71C45.0254 152.268 45.3824 152.797 45.7624 153.308H152.643C153.022 152.798 153.38 152.268 153.702 151.71L171.218 121.371H27.1875Z" fill="#1E84B5"/>
<path d="M57.6282 165.749H140.772C147.815 165.749 154.323 161.992 157.844 155.892L193.736 93.7252C197.257 87.6262 197.257 80.1112 193.736 74.0122L157.844 11.8452C154.323 5.74627 147.815 1.98828 140.772 1.98828H57.6282C50.5852 1.98828 44.0772 5.74527 40.5562 11.8452L4.66419 74.0122C1.14319 80.1112 1.14319 87.6262 4.66419 93.7252L40.5562 155.892C44.0772 161.991 50.5852 165.749 57.6282 165.749Z" stroke="#1E84B5" stroke-width="3" stroke-miterlimit="10"/>
<path d="M14.3047 110.418V131.773C14.3047 139.525 20.5887 145.809 28.3407 145.809H34.7377L14.3047 110.418Z" fill="#1E84B5"/>
<path d="M34.7377 21.9258H28.3407C20.5887 21.9258 14.3047 28.2098 14.3047 35.9618V57.3168L34.7377 21.9258Z" fill="#1E84B5"/>
<path d="M163.672 145.809H170.069C177.821 145.809 184.105 139.525 184.105 131.773V110.418L163.672 145.809Z" fill="#1E84B5"/>
<path d="M184.105 57.3207V35.9657C184.105 28.2137 177.821 21.9297 170.069 21.9297H163.672L184.105 57.3207Z" fill="#1E84B5"/>
<path d="M190.285 83.8689C190.285 86.7999 189.509 89.6899 188.045 92.2269L153.7 151.714C150.724 156.868 145.177 160.071 139.225 160.071H59.1761C53.2241 160.071 47.6781 156.868 44.7011 151.714L10.3571 92.2269C8.89318 89.6899 8.11719 86.7999 8.11719 83.8689C8.11719 80.9389 8.89218 78.0489 10.3571 75.5119L44.7011 16.025C47.6771 10.871 53.2241 7.66797 59.1761 7.66797H139.225C145.177 7.66797 150.723 10.871 153.7 16.025L188.045 75.5119C189.509 78.0499 190.285 80.9399 190.285 83.8689Z" stroke="#1E84B5" stroke-width="2" stroke-miterlimit="10"/>
<path d="M53.6221 86.5L56.6431 92.023L62.1661 95.044L56.6431 98.065L53.6221 103.588L50.6011 98.065L45.0781 95.044L50.6011 92.023L53.6221 86.5Z" fill="#1E84B5"/>
<path d="M144.786 86.5L147.807 92.023L153.33 95.044L147.807 98.065L144.786 103.588L141.765 98.065L136.242 95.044L141.765 92.023L144.786 86.5Z" fill="#1E84B5"/>
<path d="M99.2084 70.2279C135.369 70.2279 164.682 69.8043 164.682 69.2819C164.682 68.7594 135.369 68.3359 99.2084 68.3359C63.0481 68.3359 33.7344 68.7594 33.7344 69.2819C33.7344 69.8043 63.0481 70.2279 99.2084 70.2279Z" fill="#1E84B5"/>
<path d="M64.6484 135.274V134.806L65.5854 134.582V128.838L64.6484 128.614V128.145H69.9546V130.233H69.4759L69.038 128.827L66.8381 128.746V131.363L69.038 131.17V132.076L66.8381 131.893V134.673L69.2315 134.592L69.7509 133.074H70.2295L70.1481 135.274H64.6484ZM71.0303 135.274V134.806L71.9978 134.571L72.3237 128.827L71.4275 128.614L71.4377 128.145H73.6172L75.9087 133.461L78.2206 128.145H80.3186V128.614L79.402 128.827L79.7482 134.582L80.7259 134.806V135.274H77.6299V134.806L78.5261 134.592L78.2511 129.764L75.8374 135.325H75.3893L72.945 129.754L72.6904 134.592L73.5968 134.806V135.274H71.0303ZM83.6465 131.934C83.7484 131.947 83.8502 131.957 83.952 131.964C84.0539 131.971 84.1523 131.974 84.2474 131.974C84.4782 131.974 84.6921 131.94 84.889 131.873C85.0927 131.805 85.2658 131.703 85.4084 131.567C85.5578 131.431 85.6732 131.265 85.7547 131.068C85.8362 130.871 85.8769 130.64 85.8769 130.375C85.8769 129.846 85.7174 129.449 85.3982 129.184C85.0859 128.919 84.6751 128.787 84.1659 128.787H83.6465V131.934ZM81.4568 135.274V134.806L82.3938 134.582V128.838L81.4568 128.614V128.145H84.1659C86.1621 128.145 87.1602 128.889 87.1602 130.375C87.1602 131.129 86.8988 131.693 86.376 132.066C85.8599 132.433 85.1776 132.616 84.3289 132.616C84.0912 132.616 83.8638 132.599 83.6465 132.565V134.582L84.889 134.806V135.274H81.4568ZM87.8321 135.274V134.806L88.7691 134.582V128.838L87.8321 128.614V128.145H90.9587V128.614L90.0218 128.838V134.592H92.4151L92.9651 133.074H93.4336L93.3317 135.274H87.8321ZM97.6109 127.992C98.1609 127.992 98.6463 128.084 99.0673 128.267C99.4882 128.451 99.8447 128.705 100.137 129.031C100.429 129.357 100.649 129.747 100.799 130.202C100.948 130.657 101.023 131.156 101.023 131.699C101.023 132.249 100.948 132.752 100.799 133.207C100.656 133.662 100.439 134.055 100.147 134.388C99.8617 134.714 99.5052 134.969 99.0775 135.152C98.6565 135.335 98.1676 135.427 97.6109 135.427C97.0202 135.427 96.5076 135.329 96.073 135.132C95.6453 134.935 95.2922 134.67 95.0138 134.337C94.7355 133.998 94.5284 133.601 94.3926 133.146C94.2636 132.691 94.1991 132.202 94.1991 131.679C94.1991 131.17 94.267 130.695 94.4028 130.253C94.5386 129.805 94.7456 129.415 95.024 129.082C95.3024 128.743 95.6555 128.478 96.0832 128.288C96.5178 128.091 97.027 127.992 97.6109 127.992ZM97.6109 128.593C96.9183 128.593 96.3921 128.885 96.0323 129.469C95.6792 130.046 95.5027 130.793 95.5027 131.71C95.5027 132.681 95.6894 133.444 96.0628 134.001C96.4431 134.551 96.9591 134.826 97.6109 134.826C98.2627 134.826 98.7753 134.551 99.1487 134.001C99.529 133.444 99.7191 132.681 99.7191 131.71C99.7191 130.793 99.5392 130.046 99.1793 129.469C98.8262 128.885 98.3034 128.593 97.6109 128.593ZM101.137 128.614V128.145H104.07V128.614L103.408 128.746L105.088 131.221L106.596 128.817L105.842 128.614V128.145H108.337V128.614L107.4 128.838L105.424 131.985V134.582L106.361 134.806V135.274H103.235V134.806L104.172 134.582V132.015L101.962 128.817L101.137 128.614ZM108.758 135.274V134.806L109.695 134.582V128.838L108.758 128.614V128.145H114.064V130.233H113.585L113.147 128.827L110.948 128.746V131.363L113.147 131.17V132.076L110.948 131.893V134.673L113.341 134.592L113.86 133.074H114.339L114.258 135.274H108.758ZM115.282 135.274V134.806L116.219 134.582V128.838L115.282 128.614V128.145H120.589V130.233H120.11L119.672 128.827L117.472 128.746V131.363L119.672 131.17V132.076L117.472 131.893V134.673L119.865 134.592L120.385 133.074H120.864L120.782 135.274H115.282ZM127.647 127.992C128.197 127.992 128.683 128.084 129.103 128.267C129.524 128.451 129.881 128.705 130.173 129.031C130.465 129.357 130.685 129.747 130.835 130.202C130.984 130.657 131.059 131.156 131.059 131.699C131.059 132.249 130.984 132.752 130.835 133.207C130.692 133.662 130.475 134.055 130.183 134.388C129.898 134.714 129.541 134.969 129.114 135.152C128.693 135.335 128.204 135.427 127.647 135.427C127.056 135.427 126.544 135.329 126.109 135.132C125.681 134.935 125.328 134.67 125.05 134.337C124.772 133.998 124.565 133.601 124.429 133.146C124.3 132.691 124.235 132.202 124.235 131.679C124.235 131.17 124.303 130.695 124.439 130.253C124.575 129.805 124.782 129.415 125.06 129.082C125.339 128.743 125.692 128.478 126.119 128.288C126.554 128.091 127.063 127.992 127.647 127.992ZM127.647 128.593C126.955 128.593 126.428 128.885 126.069 129.469C125.715 130.046 125.539 130.793 125.539 131.71C125.539 132.681 125.726 133.444 126.099 134.001C126.479 134.551 126.995 134.826 127.647 134.826C128.299 134.826 128.812 134.551 129.185 134.001C129.565 133.444 129.755 132.681 129.755 131.71C129.755 130.793 129.575 130.046 129.216 129.469C128.862 128.885 128.34 128.593 127.647 128.593ZM131.892 135.274V134.806L132.829 134.582V128.838L131.892 128.614V128.145H137.147V130.233H136.679L136.251 128.827L134.082 128.746V131.353L136.281 131.17V132.076L134.082 131.903V134.582L135.222 134.806V135.274H131.892Z" fill="white"/>
<path d="M69.0156 140.511V138.352H75.0753V140.511H74.5967L74.1384 139.034L72.6718 138.953V144.789L73.6088 145.013V145.481H70.4821V145.013L71.4191 144.789V138.953L69.9424 139.034L69.4942 140.511H69.0156ZM75.8318 145.481V145.013L76.7688 144.789V139.045L75.8318 138.82V138.352H78.9584V138.82L78.0214 139.045V141.54H81.1685V139.045L80.2315 138.82V138.352H83.3581V138.82L82.4212 139.045V144.789L83.3581 145.013V145.481H80.2315V145.013L81.1685 144.789V142.222H78.0214V144.789L78.9584 145.013V145.481H75.8318ZM84.2559 145.481V145.013L85.1928 144.789V139.045L84.2559 138.82V138.352H89.562V140.44H89.0833L88.6454 139.034L86.4455 138.953V141.57L88.6454 141.377V142.283L86.4455 142.1V144.88L88.8389 144.799L89.3583 143.281H89.837L89.7555 145.481H84.2559ZM92.9949 145.481V145.013L93.9624 144.778L94.2883 139.034L93.3921 138.82L93.4023 138.352H95.5818L97.8733 143.668L100.185 138.352H102.283V138.82L101.367 139.034L101.713 144.789L102.691 145.013V145.481H99.5944V145.013L100.491 144.799L100.216 139.971L97.802 145.532H97.3539L94.9096 139.961L94.655 144.799L95.5614 145.013V145.481H92.9949ZM106.755 138.199C107.305 138.199 107.791 138.291 108.212 138.474C108.633 138.658 108.989 138.912 109.281 139.238C109.573 139.564 109.794 139.954 109.943 140.409C110.092 140.864 110.167 141.363 110.167 141.906C110.167 142.456 110.092 142.959 109.943 143.414C109.801 143.869 109.583 144.262 109.291 144.595C109.006 144.921 108.65 145.176 108.222 145.359C107.801 145.542 107.312 145.634 106.755 145.634C106.165 145.634 105.652 145.535 105.217 145.339C104.79 145.142 104.437 144.877 104.158 144.544C103.88 144.205 103.673 143.808 103.537 143.353C103.408 142.898 103.344 142.409 103.344 141.886C103.344 141.377 103.411 140.902 103.547 140.46C103.683 140.012 103.89 139.622 104.168 139.289C104.447 138.949 104.8 138.685 105.228 138.495C105.662 138.298 106.171 138.199 106.755 138.199ZM106.755 138.8C106.063 138.8 105.537 139.092 105.177 139.676C104.824 140.253 104.647 141 104.647 141.917C104.647 142.888 104.834 143.651 105.207 144.208C105.588 144.758 106.104 145.033 106.755 145.033C107.407 145.033 107.92 144.758 108.293 144.208C108.673 143.651 108.864 142.888 108.864 141.917C108.864 141 108.684 140.253 108.324 139.676C107.971 139.092 107.448 138.8 106.755 138.8ZM111 145.481V145.013L111.937 144.789V139.045L111 138.82V138.352H112.65L116.897 143.393V139.045L115.96 138.82V138.352H118.577V138.82L117.64 139.045V145.481H117.029L112.65 140.318V144.789L113.587 145.013V145.481H111ZM119.232 140.511V138.352H125.292V140.511H124.813L124.355 139.034L122.888 138.953V144.789L123.825 145.013V145.481H120.698V145.013L121.635 144.789V138.953L120.159 139.034L119.711 140.511H119.232ZM126.048 145.481V145.013L126.985 144.789V139.045L126.048 138.82V138.352H129.175V138.82L128.238 139.045V141.54H131.385V139.045L130.448 138.82V138.352H133.574V138.82L132.638 139.045V144.789L133.574 145.013V145.481H130.448V145.013L131.385 144.789V142.222H128.238V144.789L129.175 145.013V145.481H126.048Z" fill="white"/>
</g>
<defs>
<clipPath id="clip0_595_88">
<rect width="198" height="168" fill="white"/>
</clipPath>
</defs>
</svg>
