<svg width="40" height="40" viewBox="0 0 40 40" fill="none" xmlns="http://www.w3.org/2000/svg">
<path d="M4.05742 20.5152C3.947 20.1833 3.947 19.8247 4.05742 19.4928C6.27662 12.816 12.5758 8 19.9998 8C27.4206 8 33.7166 12.8112 35.9406 19.4848C36.0526 19.816 36.0526 20.1744 35.9406 20.5072C33.723 27.184 27.4238 32 19.9998 32C12.579 32 6.28142 27.1888 4.05742 20.5152Z" stroke="white" stroke-width="1.5" stroke-linecap="round" stroke-linejoin="round"/>
<path d="M24.8012 19.9997C24.8012 21.2727 24.2955 22.4936 23.3953 23.3938C22.4951 24.294 21.2742 24.7997 20.0012 24.7997C18.7281 24.7997 17.5072 24.294 16.6071 23.3938C15.7069 22.4936 15.2012 21.2727 15.2012 19.9997C15.2012 18.7267 15.7069 17.5058 16.6071 16.6056C17.5072 15.7054 18.7281 15.1997 20.0012 15.1997C21.2742 15.1997 22.4951 15.7054 23.3953 16.6056C24.2955 17.5058 24.8012 18.7267 24.8012 19.9997Z" stroke="white" stroke-width="1.5" stroke-linecap="round" stroke-linejoin="round"/>
</svg>
